<?xml version="1.0" encoding="iso-8859-1"?>
<!-- Generator: Adobe Illustrator 19.0.0, SVG Export Plug-In . SVG Version: 6.00 Build 0)  -->
<svg xmlns="http://www.w3.org/2000/svg" xmlns:xlink="http://www.w3.org/1999/xlink" version="1.1" id="Capa_1" x="0px" y="0px" viewBox="0 0 465 465" style="enable-background:new 0 0 465 465;" xml:space="preserve" width="512" height="512">
<g>
	<path style="fill:#FFFFFF;" d="M183,108.31c14.05,14.05,22.1,25.02,28.02,34.9c-6.1,10.69-14.29,22.45-29.82,37.98   c-5.17,5.17-9.92,9.53-14.36,13.26c-6.19-11.06-14.4-23.16-30.61-39.37c-43.42-43.43-57.38-29.47-100.81-72.89l46.77-46.77   C125.61,78.85,139.57,64.89,183,108.31z"/>
	<path style="fill:#FFFFFF;" d="M429.58,382.81l-46.77,46.77c-43.42-43.42-29.46-57.38-72.88-100.81   c-16.92-16.92-29.37-25.12-40.83-31.41c4.54-3.8,9.4-8.25,14.71-13.56c14.22-14.22,22.29-25.29,28.23-35.26   c12.55,6.61,25.84,14.65,44.66,33.47C400.12,325.43,386.16,339.39,429.58,382.81z"/>
	<path style="fill:#FFC9C2;" d="M210.92,80.39c9.57,9.57,16.36,17.71,21.58,25.06c-10,14.04-14.29,25.15-21.48,37.76   c-5.92-9.88-13.97-20.85-28.02-34.9c-43.43-43.42-57.39-29.46-100.81-72.89L110.11,7.5C153.54,50.92,167.5,36.96,210.92,80.39z"/>
	<path style="fill:#FFC9C2;" d="M136.23,155.08c16.21,16.21,24.42,28.31,30.61,39.37c-12.42,10.47-22.35,16.07-31.96,21.08   c-5.79-9.27-13.63-19.59-26.57-32.53C64.89,139.57,50.93,153.54,7.5,110.11l27.92-27.92C78.85,125.61,92.81,111.65,136.23,155.08z"/>
	<path style="fill:#FFC9C2;" d="M382.81,429.58l-27.92,27.92c-43.42-43.42-29.46-57.38-72.88-100.8   c-21.26-21.27-35.46-28.77-49.51-35.99c11.15-5.73,22.2-11.27,36.6-23.35c11.46,6.29,23.91,14.49,40.83,31.41   C353.35,372.2,339.39,386.16,382.81,429.58z"/>
	<path style="fill:#FFC9C2;" d="M457.5,354.89l-27.92,27.92c-43.42-43.42-29.46-57.38-72.88-100.8   c-18.82-18.82-32.11-26.86-44.65-33.47c6.78-11.39,10.8-21.37,18.07-33.01c15.78,8.21,30.72,14.78,54.5,38.56   C428.04,297.51,414.08,311.47,457.5,354.89z"/>
	<path style="fill:#FFF8ED;" d="M382.81,35.42l46.77,46.77c-43.42,43.42-57.38,29.46-100.81,72.88   c-43.42,43.43-29.46,57.39-72.88,100.81c-43.43,43.42-57.39,29.46-100.81,72.89c-43.43,43.42-29.47,57.38-72.89,100.81   l-46.77-46.77c43.43-43.42,29.47-57.38,72.89-100.81c43.43-43.42,57.39-29.46,100.81-72.89c43.42-43.42,29.46-57.38,72.89-100.81   C325.43,64.88,339.39,78.84,382.81,35.42z"/>
	<path style="fill:#FEA793;" d="M354.89,7.5l27.92,27.92c-43.42,43.42-57.38,29.46-100.8,72.88   c-43.43,43.43-29.47,57.39-72.89,100.81c-43.42,43.43-57.38,29.47-100.81,72.89c-43.42,43.43-29.46,57.39-72.89,100.81L7.5,354.89   c43.43-43.43,29.46-57.39,72.89-100.81c23.77-23.77,38.71-30.35,54.49-38.55c9.61-5.01,19.54-10.61,31.96-21.08   c4.44-3.73,9.19-8.09,14.36-13.26c15.53-15.53,23.72-27.29,29.82-37.98c7.19-12.61,11.48-23.72,21.48-37.76   c5.23-7.34,12.01-15.49,21.59-25.07C297.51,36.96,311.47,50.92,354.89,7.5z"/>
	<path style="fill:#FEA793;" d="M232.5,320.71c-14.05,7.22-28.25,14.73-49.5,35.98c-43.43,43.42-29.46,57.38-72.89,100.81   l-27.92-27.92c43.42-43.43,29.46-57.39,72.89-100.81c43.42-43.43,57.38-29.47,100.81-72.89c43.42-43.42,29.46-57.38,72.88-100.81   c43.43-43.42,57.39-29.46,100.81-72.88l27.92,27.92c-43.42,43.42-57.38,29.46-100.8,72.88c-12.95,12.94-20.79,23.27-26.58,32.54   c-7.27,11.64-11.29,21.62-18.08,33.01c-5.94,9.97-14.01,21.04-28.23,35.26c-5.31,5.31-10.17,9.76-14.71,13.56   C254.7,309.44,243.65,314.98,232.5,320.71z"/>
	<path style="fill:#591200;" d="M427.727,301.059c-7.507-14.621-15.27-29.739-37.813-52.283   c-20.816-20.816-35.3-29.028-48.909-36.075c5.043-7.128,11.6-15.01,20.994-24.404c20.879-20.879,34.308-27.774,48.525-35.073   c14.62-7.506,29.737-15.268,52.279-37.81c1.407-1.406,2.197-3.314,2.197-5.303s-0.79-3.897-2.197-5.303l-74.684-74.684   c-0.01-0.01-27.926-27.926-27.926-27.926C358.787,0.79,356.879,0,354.89,0s-3.897,0.79-5.303,2.197   c-20.879,20.879-34.308,27.774-48.524,35.073c-14.62,7.506-29.737,15.268-52.279,37.81c-22.543,22.543-30.305,37.661-37.812,52.281   c-7.299,14.217-14.194,27.646-35.074,48.525c-20.881,20.881-34.31,27.776-48.528,35.077c-14.621,7.507-29.739,15.269-52.283,37.813   c-22.544,22.544-30.307,37.662-37.813,52.283c-7.3,14.218-14.195,27.646-35.076,48.528C0.79,350.993,0,352.9,0,354.89   s0.79,3.897,2.197,5.303l27.916,27.916c0.01,0.01,46.768,46.768,46.768,46.768c0.01,0.01,27.926,27.926,27.926,27.926   c1.464,1.464,3.384,2.197,5.303,2.197s3.839-0.732,5.303-2.197c22.544-22.544,30.307-37.662,37.813-52.283   c7.3-14.218,14.195-27.647,35.076-48.528c18.755-18.755,31.498-26.226,44.201-32.843c12.136,6.305,25.136,13.785,44.194,32.843   c20.881,20.881,27.776,34.31,35.076,48.528c7.507,14.621,15.27,29.739,37.813,52.283c1.464,1.464,3.384,2.197,5.303,2.197   s3.839-0.732,5.303-2.197l27.916-27.916c0.01-0.01,74.694-74.694,74.694-74.694c1.407-1.406,2.197-3.314,2.197-5.303   s-0.79-3.897-2.197-5.303C441.922,328.706,435.027,315.276,427.727,301.059z M50.617,307.91   c7.3-14.218,14.195-27.647,35.076-48.528s34.31-27.776,48.527-35.076c14.621-7.507,29.739-15.27,52.283-37.814   c22.543-22.543,30.305-37.661,37.812-52.281c7.299-14.217,14.194-27.646,35.074-48.526c20.879-20.879,34.307-27.773,48.524-35.072   c13.427-6.894,27.273-14.002,46.905-32.579l17.31,17.31c-17.884,16.872-30.188,23.193-43.145,29.845   c-14.62,7.506-29.737,15.268-52.28,37.811c-22.543,22.543-30.305,37.661-37.812,52.281c-7.299,14.217-14.194,27.646-35.074,48.526   c-20.881,20.881-34.31,27.776-48.528,35.076c-14.621,7.507-29.739,15.27-52.283,37.814c-22.544,22.544-30.306,37.662-37.813,52.283   c-6.653,12.957-12.975,25.262-29.849,43.148l-17.31-17.31C36.613,335.185,43.723,321.337,50.617,307.91z M177.696,351.386   c-22.544,22.544-30.307,37.662-37.813,52.283c-6.653,12.958-12.971,25.262-29.847,43.15l-17.314-17.314   c18.572-19.63,25.691-33.48,32.584-46.906c6.009-11.704,11.686-22.759,25.099-37.949c2.742-3.105,2.448-7.844-0.657-10.586   c-3.105-2.742-7.845-2.448-10.586,0.657c-14.656,16.597-21.033,29.016-27.2,41.026c-6.653,12.958-12.975,25.263-29.848,43.148   l-36.159-36.159c18.572-19.63,25.691-33.48,32.584-46.906c7.3-14.217,14.195-27.646,35.076-48.527   c20.881-20.881,34.311-27.776,48.528-35.077c14.621-7.507,29.739-15.269,52.283-37.813c22.543-22.543,30.305-37.661,37.812-52.281   c7.299-14.217,14.194-27.646,35.074-48.526c20.879-20.879,34.308-27.774,48.524-35.073c13.425-6.893,27.274-14.01,46.902-32.581   l36.159,36.159c-17.884,16.872-30.188,23.194-43.145,29.846c-14.62,7.506-29.737,15.268-52.279,37.81   c-22.543,22.543-30.305,37.661-37.812,52.281c-7.299,14.217-14.194,27.646-35.074,48.525   c-20.881,20.881-34.31,27.776-48.528,35.076c-12.01,6.167-24.429,12.543-41.026,27.199c-3.105,2.742-3.399,7.481-0.658,10.586   c1.482,1.679,3.549,2.536,5.625,2.536c1.764,0,3.535-0.619,4.961-1.878c15.189-13.413,26.244-19.089,37.949-25.098   c14.621-7.507,29.739-15.27,52.283-37.814c22.543-22.543,30.305-37.661,37.812-52.281c7.3-14.217,14.194-27.646,35.074-48.526   c20.879-20.879,34.307-27.773,48.524-35.072c13.425-6.893,27.274-14.01,46.903-32.581l17.314,17.314   c-17.886,16.875-30.188,23.191-43.146,29.844c-14.62,7.506-29.738,15.268-52.28,37.811c-22.543,22.543-30.305,37.661-37.812,52.281   c-7.299,14.217-14.194,27.646-35.074,48.526c-5.073,5.073-9.704,9.315-14.016,12.944c-0.096,0.075-0.188,0.158-0.281,0.238   c-13.299,11.145-23.543,16.406-34.231,21.894C215.359,321.08,200.24,328.842,177.696,351.386z M382.887,418.896   c-16.874-17.886-23.196-30.191-29.849-43.148c-7.507-14.621-15.269-29.739-37.813-52.283   c-13.459-13.459-24.313-21.614-33.403-27.34c2.346-2.172,4.77-4.5,7.292-7.022c11.943-11.943,19.737-21.802,25.542-30.607   c9.938,5.627,21.306,13.384,36.73,28.808c20.881,20.881,27.776,34.31,35.076,48.528c6.893,13.426,14.012,27.276,32.584,46.906   L382.887,418.896z M354.964,446.819c-16.876-17.888-23.194-30.191-29.847-43.15c-7.507-14.621-15.27-29.739-37.813-52.283   c-15.907-15.907-28.222-24.504-38.85-30.632c6.541-3.674,13.5-8.08,21.413-14.344c9.34,5.463,20.186,13.096,34.751,27.661   c20.881,20.881,27.776,34.311,35.076,48.528c6.893,13.426,14.012,27.276,32.584,46.906L354.964,446.819z M429.655,372.128   c-16.874-17.886-23.196-30.191-29.849-43.148c-7.507-14.621-15.27-29.739-37.813-52.283   c-16.472-16.472-29.096-25.074-39.663-31.091c1.616-2.983,3.112-5.893,4.596-8.784c1.951-3.8,3.876-7.545,6.044-11.39   c13.43,6.922,26.532,14.144,46.338,33.95c20.881,20.881,27.776,34.31,35.076,48.528c6.894,13.427,14.004,27.274,32.582,46.908   L429.655,372.128z"/>
	<path style="fill:#591200;" d="M54.477,153.224c14.216,7.299,27.645,14.193,48.524,35.073c2.744,2.745,5.355,5.473,7.76,8.109   c1.48,1.622,3.508,2.445,5.543,2.445c1.804,0,3.615-0.647,5.053-1.959c3.06-2.792,3.278-7.536,0.486-10.596   c-2.559-2.805-5.33-5.701-8.236-8.606c-22.542-22.542-37.66-30.304-52.28-37.811c-12.958-6.653-25.26-12.969-43.146-29.844   l17.314-17.314c19.628,18.571,33.478,25.688,46.902,32.581c14.217,7.299,27.645,14.193,48.524,35.072   c4.908,4.908,9.166,9.522,13.015,14.104c1.483,1.766,3.607,2.676,5.747,2.676c1.703,0,3.415-0.577,4.82-1.757   c3.172-2.664,3.583-7.395,0.919-10.566c-4.131-4.918-8.675-9.845-13.894-15.063c-22.542-22.542-37.66-30.304-52.28-37.81   c-12.956-6.652-25.261-12.973-43.145-29.845l36.16-36.16c19.628,18.571,33.478,25.688,46.902,32.581   c14.217,7.299,27.645,14.193,48.524,35.073c2.822,2.823,5.497,5.621,7.948,8.316c1.48,1.627,3.511,2.454,5.551,2.454   c1.8,0,3.607-0.645,5.044-1.952c3.064-2.787,3.289-7.53,0.502-10.595c-2.61-2.87-5.449-5.84-8.438-8.83   c-22.542-22.542-37.66-30.304-52.28-37.811c-12.957-6.652-25.261-12.973-43.145-29.845l17.31-17.31   c19.632,18.577,33.479,25.685,46.905,32.579c14.217,7.299,27.645,14.193,48.524,35.072c0.536,0.536,1.062,1.066,1.579,1.592   c2.905,2.953,7.654,2.992,10.606,0.087c2.953-2.905,2.992-7.653,0.087-10.606c-0.546-0.555-1.101-1.114-1.666-1.679   c-22.542-22.542-37.66-30.304-52.279-37.81c-14.217-7.299-27.645-14.193-48.524-35.073C114.007,0.79,112.1,0,110.11,0   s-3.897,0.79-5.303,2.197L76.891,30.113c-0.01,0.01-46.768,46.768-46.768,46.768c-0.01,0.01-27.926,27.926-27.926,27.926   C0.79,106.213,0,108.121,0,110.11s0.79,3.897,2.197,5.303C24.739,137.956,39.856,145.717,54.477,153.224z"/>
</g>















</svg>
